<?xml version="1.0" standalone="no"?>
<!DOCTYPE svg PUBLIC "-//W3C//DTD SVG 20010904//EN"
 "http://www.w3.org/TR/2001/REC-SVG-20010904/DTD/svg10.dtd">
<svg version="1.0" xmlns="http://www.w3.org/2000/svg"
 width="916.000000pt" height="928.000000pt" viewBox="0 0 916.000000 928.000000"
 preserveAspectRatio="xMidYMid meet">

<g transform="translate(0.000000,928.000000) scale(0.100000,-0.100000)"
fill="#000000" stroke="none">
<path d="M2850 7844 c-205 -44 -373 -203 -446 -424 -18 -52 -19 -119 -22
-1157 -3 -1214 -6 -1145 58 -1178 33 -17 92 -20 119 -5 10 5 27 22 37 37 18
27 19 70 24 1133 l5 1105 27 57 c34 73 103 142 176 176 l57 27 1110 3 c785 2
1137 0 1203 -8 595 -73 1060 -453 1199 -980 25 -96 27 -120 27 -285 0 -151 -4
-194 -22 -268 -71 -286 -238 -532 -479 -703 -72 -52 -303 -194 -315 -194 -4 0
-209 122 -456 272 -246 150 -473 283 -505 296 -342 138 -716 36 -922 -253
-102 -143 -148 -286 -147 -460 1 -297 159 -549 427 -681 115 -56 185 -74 315
-81 114 -5 199 8 304 47 32 12 268 148 523 302 l464 279 315 -192 c173 -105
351 -217 395 -248 391 -280 579 -657 580 -1166 1 -188 -16 -299 -67 -454 -42
-124 -78 -197 -150 -306 -222 -339 -593 -565 -1009 -614 -49 -6 -230 -11 -402
-11 l-311 0 -31 -26 c-44 -36 -59 -94 -38 -139 33 -69 40 -70 432 -69 313 1
363 3 474 22 408 72 775 297 1021 626 168 225 265 458 306 740 21 143 14 401
-15 566 -62 349 -217 637 -471 872 -114 106 -220 180 -500 349 -129 79 -250
153 -268 164 l-32 22 92 58 c235 148 407 317 531 523 200 330 257 755 150
1122 -157 542 -644 961 -1263 1084 -160 32 -316 36 -1375 35 -869 0 -1072 -3
-1125 -15z m1670 -2298 c53 -17 472 -263 823 -483 l39 -24 -374 -226 c-423
-255 -446 -267 -525 -289 -192 -52 -410 12 -537 159 -214 244 -167 628 97 798
149 96 316 119 477 65z"/>
<path d="M2421 4493 c-46 -43 -831 -944 -852 -978 -36 -58 -16 -130 45 -159
40 -19 66 -20 100 -5 13 6 168 175 343 375 l318 363 5 -967 5 -967 23 -65 c58
-161 163 -281 304 -348 144 -69 116 -67 906 -67 l714 0 34 37 c58 64 43 153
-32 184 -27 12 -155 14 -716 14 -702 0 -737 2 -808 40 -48 25 -91 65 -124 115
-70 103 -66 48 -64 1087 l3 937 315 -361 c173 -198 327 -366 342 -374 57 -30
124 -8 152 50 24 50 20 89 -11 128 -98 118 -802 920 -835 951 -35 32 -47 37
-89 37 -39 0 -54 -5 -78 -27z"/>
</g>
</svg>
